<?xml version="1.0" encoding="UTF-8"?>
<!DOCTYPE svg PUBLIC "-//W3C//DTD SVG 1.1//EN" "http://www.w3.org/Graphics/SVG/1.1/DTD/svg11.dtd">
<svg xmlns="http://www.w3.org/2000/svg" xmlns:xlink="http://www.w3.org/1999/xlink" version="1.1" width="352px" height="351px" viewBox="-0.5 -0.5 352 351"><defs/><g><ellipse cx="175" cy="175" rx="175" ry="175" fill="none" stroke="none" pointer-events="all"/><rect x="320" y="172.13" width="30" height="5.75" fill="#78ecf5" stroke="#78ecf5" pointer-events="all"/><rect x="0" y="172.13" width="30" height="5.75" fill="#78ecf5" stroke="#78ecf5" pointer-events="all"/><rect x="160" y="12.13" width="30" height="5.75" fill="#78ecf5" stroke="#78ecf5" transform="rotate(90,175,15)" pointer-events="all"/><rect x="24" y="90" width="30" height="5.75" fill="#78ecf5" stroke="#78ecf5" transform="rotate(30,39,92.88)" pointer-events="all"/><rect x="87" y="30" width="30" height="5.75" fill="#78ecf5" stroke="#78ecf5" transform="rotate(60,102,32.88)" pointer-events="all"/><rect x="296" y="90.25" width="30" height="5.75" fill="#78ecf5" stroke="#78ecf5" transform="rotate(-210,311,93.13)" pointer-events="all"/><rect x="240" y="33.75" width="30" height="5.75" fill="#78ecf5" stroke="#78ecf5" transform="rotate(120,255,36.63)" pointer-events="all"/><rect x="24" y="255" width="30" height="5.75" fill="#78ecf5" stroke="#78ecf5" transform="rotate(-30,39,257.88)" pointer-events="all"/><rect x="296" y="255" width="30" height="5.75" fill="#78ecf5" stroke="#78ecf5" transform="rotate(-150,311,257.88)" pointer-events="all"/><rect x="7.28" y="220.37" width="13" height="2.12" fill="#78ecf5" stroke="#78ecf5" transform="rotate(-23,13.78,221.43)" pointer-events="all"/><rect x="7.28" y="127" width="13" height="2.12" fill="#78ecf5" stroke="#78ecf5" transform="rotate(20,13.78,128.06)" pointer-events="all"/><rect x="55" y="51" width="13" height="2.12" fill="#78ecf5" stroke="#78ecf5" transform="rotate(50,61.5,52.06)" pointer-events="all"/><rect x="130" y="10" width="13" height="2.12" fill="#78ecf5" stroke="#78ecf5" transform="rotate(75,136.5,11.06)" pointer-events="all"/><rect x="212" y="12" width="13" height="2.12" fill="#78ecf5" stroke="#78ecf5" transform="rotate(105,218.5,13.06)" pointer-events="all"/><rect x="285" y="53.12" width="13" height="2.12" fill="#78ecf5" stroke="#78ecf5" transform="rotate(-230,291.5,54.18)" pointer-events="all"/><rect x="330" y="128" width="13" height="2.12" fill="#78ecf5" stroke="#78ecf5" transform="rotate(-200,336.5,129.06)" pointer-events="all"/><rect x="330" y="220.37" width="13" height="2.12" fill="#78ecf5" stroke="#78ecf5" transform="rotate(-154,336.5,221.43)" pointer-events="all"/></g></svg>